<svg width="1362" height="80" viewBox="0 0 1362 80" fill="none" xmlns="http://www.w3.org/2000/svg">
<g clip-path="url(#clip0_0_19)">
<path d="M1348.23 54.3173C1347.62 47.2325 1329.56 49.2989 1325.58 49.2989C1314.87 51.3653 1302.94 47.2325 1292.84 50.4797C1285.19 53.1365 1278.46 56.3838 1270.5 56.0885C1263.77 50.1845 1256.73 57.2694 1250.31 55.2029C1246.02 54.0221 1241.74 49.0037 1237.15 51.0701C1235.62 50.7749 1235.01 50.7749 1233.78 50.1845C1232.86 50.4797 1232.56 51.0701 1231.33 47.8229C1228.27 50.4797 1221.23 47.5277 1218.17 47.8229C1213.89 46.6421 1210.52 47.8229 1206.55 50.4797C1202.87 52.8413 1201.04 57.2694 1196.14 53.1365C1193.08 56.0885 1180.84 55.7933 1177.78 52.5461C1175.95 47.8229 1177.17 49.5941 1176.25 48.1181C1175.33 46.6421 1173.19 43.9852 1171.05 44.2804C1164.93 40.4428 1154.52 39.8524 1147.49 43.3948C1138.31 40.4428 1127.29 38.0812 1118.42 42.8044C1115.36 42.8044 1115.36 44.5756 1111.99 49.2989C1109.54 54.9077 1106.79 49.0037 1104.03 49.8893C1099.75 49.2989 1091.79 50.1845 1087.81 50.4797C1083.84 54.0221 1083.84 53.1365 1078.94 54.9077C1068.84 56.679 1058.74 54.3173 1049.26 56.0885C1043.14 57.8598 1035.49 54.6125 1029.06 56.3838C1020.8 66.4207 1008.86 51.0701 1002.74 59.631C1000.6 62.583 999.377 67.3063 996.011 64.3542C994.175 63.7638 992.339 66.1254 990.503 67.0111C983.465 67.8967 979.486 61.4022 972.754 64.3542C969.694 58.4502 966.328 62.8782 962.962 64.3542C958.678 65.535 952.863 64.6494 948.885 64.6494C945.825 67.8967 943.989 66.1255 940.317 69.0775C937.563 70.8487 934.809 67.6015 931.749 69.3727C923.792 69.9631 915.224 63.1734 906.962 67.6015C900.229 70.5535 893.191 73.2103 886.153 72.6199C887.071 64.059 861.366 74.0959 855.858 67.8967C847.29 63.7638 839.333 71.7343 831.071 71.7343C824.033 79.7048 817.301 69.9631 809.956 72.9151C804.754 74.3911 801.388 74.3911 796.798 71.1439C794.044 68.7823 795.574 69.0775 792.514 69.3727C791.596 61.6974 790.066 68.4871 789.148 69.3727C784.557 65.535 779.355 71.4391 775.071 69.3727C771.705 71.7343 769.257 69.9631 766.503 73.8007C761.607 72.3247 756.404 77.048 750.59 77.9336C742.328 77.6384 734.066 75.8671 726.415 79.4096C719.989 82.3616 712.645 76.7528 706.525 76.4576C703.159 73.2103 702.24 74.9815 699.486 74.0959C697.956 74.6863 696.426 69.6679 694.896 72.9151C690.612 74.6863 686.022 75.2767 681.738 72.9151C677.454 67.8967 673.169 75.2767 668.885 73.2103C663.989 82.0664 660.011 70.2583 655.421 69.6679C646.852 71.4391 637.366 72.9151 628.798 69.6679C625.432 70.5535 621.148 69.3727 617.781 69.3727C614.109 69.3727 613.803 65.8302 610.743 63.7638C604.929 58.7454 594.525 67.6015 588.098 63.1734C584.732 65.2398 582.896 58.7454 579.224 61.4022C573.104 59.3358 573.716 60.5166 569.126 56.9742C563.924 51.3653 553.825 55.7933 548.623 57.5646C544.645 62.8782 542.503 59.9262 540.667 61.6974C538.831 62.2878 538.525 65.535 534.852 69.0775C531.792 69.6679 529.344 76.4576 525.366 74.9815C520.776 78.2288 517.716 73.2103 514.044 73.5055C508.536 67.3063 499.967 72.6199 494.153 73.5055C485.891 75.2767 477.934 72.3247 469.672 73.5055C463.858 69.9631 458.044 73.2103 452.536 73.5055C449.475 73.2103 443.355 74.9815 443.661 70.5535C437.847 68.1919 431.115 69.3727 424.995 69.9631C424.383 66.4207 425.607 63.1734 424.689 61.9926C419.18 64.6494 413.672 56.0885 407.858 58.155C403.88 57.2694 399.596 62.583 395.617 58.155C386.131 56.679 376.951 60.8118 367.464 58.155C363.792 57.5646 361.344 57.2694 358.284 56.3838C353.388 54.3173 350.328 49.2989 344.82 53.1365C339.617 51.9557 334.415 54.9077 329.519 54.0221C323.399 54.0221 325.541 51.6605 321.257 51.3653C318.197 47.2325 312.077 53.4317 308.71 51.3653C302.896 57.2694 297.082 47.8229 291.574 51.3653C286.678 53.1365 286.372 52.8413 282.699 56.3838C279.027 54.0221 273.519 58.155 269.235 59.9262C264.339 63.1734 260.361 58.7454 255.465 61.9926C252.098 61.107 250.874 66.4207 247.508 62.2878C245.06 62.583 244.142 61.107 242.306 57.8598C240.164 51.3653 239.246 54.6125 236.492 56.679C233.126 55.2029 230.066 58.4502 226.699 56.679C223.027 60.2214 219.355 51.9557 215.683 56.679C212.011 54.3173 206.503 56.9742 203.443 56.9742C200.383 58.4502 198.546 57.5646 195.18 53.1365C191.508 51.0701 189.672 47.5277 185.694 53.1365C177.738 56.9742 172.842 59.0406 163.049 61.9926C156.623 59.9262 150.197 64.9446 143.771 61.9926C138.262 60.5166 133.978 67.8967 128.47 63.7638C123.88 64.3542 119.596 62.8782 115.005 63.7638C110.721 62.8782 106.437 59.9262 102.153 63.7638C99.3989 63.7638 94.5027 61.9926 92.0546 65.2398C85.3224 72.0295 80.7322 72.6199 73.082 73.8007C69.1038 74.0959 65.4317 77.6384 61.4536 74.0959C58.3934 70.8487 55.3333 75.5719 52.2732 77.048C44.929 78.524 36.0546 77.048 31.4645 71.1439C25.6503 63.7638 18 64.059 8.81968 64.3542C4.53552 67.3063 0.863388 62.583 -3.42076 62.583C-4.33879 65.8302 -6.17486 64.059 -7.09289 62.8782C-8.62295 62.583 -8.31694 62.2878 -9.54098 60.5166C-16.2732 55.4981 -23.3115 54.6125 -29.4317 62.8782C-29.4317 62.583 -31.5738 51.9557 -33.7158 45.166C-35.8579 36.9004 -38 28.3395 -38 27.4539C-32.7978 30.7011 -27.5956 37.1956 -22.0874 37.786C-19.0273 36.6052 -11.9891 40.738 -8.92896 37.786C-4.03279 36.9004 -0.972675 31.5867 3.61749 35.4243C8.20765 33.0627 13.1038 31.2915 17.694 35.7195C22.5902 37.786 25.9563 48.7085 31.4645 43.0996C39.4208 43.3948 44.3169 43.9852 50.7432 49.5941C57.1694 55.2029 67.5738 49.2989 74.918 45.7564C81.6503 44.8708 88.9945 40.4428 96.0328 44.8708C103.071 43.0996 110.109 43.69 116.842 42.214C124.492 35.7195 131.836 32.7675 140.71 34.8339C148.667 36.31 155.705 39.5572 163.661 34.5387C167.333 39.5572 170.393 34.8339 174.066 33.0627C182.328 31.5867 189.978 30.1107 197.628 27.7491C204.055 25.9778 207.421 17.1218 213.541 18.0074C218.131 9.74169 223.027 21.5498 227.617 18.0074C232.208 20.369 235.88 17.1218 240.776 14.1697C245.06 18.5978 249.344 12.3985 253.628 14.4649C261.891 13.8745 273.825 12.1033 281.169 16.5314C283.617 14.1697 284.842 14.4649 287.596 20.9594C290.962 20.9594 294.94 17.1218 298.306 21.2546C302.59 21.2546 304.12 27.1587 308.098 24.797C309.934 27.7491 311.771 25.0922 313.607 25.0922C314.525 25.0922 316.055 22.4354 317.585 28.6347C320.951 28.9299 325.541 25.6826 329.213 30.9963C332.273 33.0627 335.027 37.1956 338.087 32.4723C341.76 28.9299 342.678 23.9114 347.268 26.2731C350.022 26.8635 351.858 28.3395 353.694 31.2915C357.978 37.786 364.71 31.8819 369.913 32.7675C380.623 35.1291 391.027 38.0812 401.738 32.7675C404.492 33.6531 406.634 32.4723 409.082 33.3579C413.06 37.786 412.754 35.4243 417.038 37.786C424.383 37.4908 432.033 32.1771 439.377 36.0148C443.355 42.214 447.027 36.6052 451.005 37.786C453.454 35.4243 456.82 35.7195 458.962 38.3764C461.716 41.0332 460.492 43.0996 462.328 46.0516C465.082 49.2989 474.874 49.8893 479.771 47.8229C484.361 41.6236 488.951 44.2804 493.235 47.8229C499.967 50.4797 504.863 48.7085 510.372 44.2804C513.738 34.8339 515.268 41.9188 518.634 39.5572C522 41.3284 524.142 34.8339 526.896 35.7195C531.792 31.5867 538.219 36.0147 544.951 30.7011C551.683 28.9299 558.415 26.8635 564.536 31.2915C572.186 29.8155 579.836 32.4723 586.874 33.0627C590.546 37.786 590.24 36.6052 594.219 34.5387C598.197 35.4243 599.727 36.0147 602.787 37.786C607.989 31.8819 614.721 33.6531 620.536 38.0812C626.044 36.0147 631.246 37.786 636.754 38.0812C644.098 40.4428 651.749 35.4243 659.705 34.8339C667.661 38.6716 675.311 40.738 682.35 38.0812C684.492 41.6236 686.022 39.5572 687.858 42.8044C688.164 39.8524 691.53 45.7564 691.53 46.3469C695.814 49.8893 700.098 44.8708 704.383 45.166C709.891 43.3948 714.481 48.4133 719.377 41.6236C723.049 40.1476 726.721 37.786 731.311 33.6531C736.208 33.0627 740.798 33.6531 745.082 35.4243C749.672 35.7195 751.814 35.7195 755.792 32.1771C757.934 28.0443 757.934 26.2731 760.995 30.4059C764.361 27.7491 767.421 39.8524 770.787 36.9004C775.071 39.5572 780.579 37.1956 785.169 38.0812C791.596 36.6052 798.328 29.5203 805.06 36.6052C811.792 38.3764 818.525 34.5387 825.257 36.9004C828.011 32.1771 833.825 41.0332 835.967 37.1956C838.109 39.262 838.109 39.262 840.557 43.9852C843.005 51.9557 847.596 51.6605 850.35 45.4612C854.328 45.4612 856.776 45.4612 861.06 43.69C865.956 37.1956 871.159 43.3948 876.055 43.3948C881.257 42.8044 884.317 43.69 889.213 46.6421C896.251 49.5941 900.229 45.166 905.738 41.3284C908.798 36.9004 909.41 39.262 913.082 37.786C915.53 33.9483 917.672 37.4908 920.12 33.9483C924.404 35.4243 929.913 29.5203 934.503 33.6531C938.787 32.1771 941.541 34.8339 945.519 35.4243C948.273 34.5387 949.803 38.9668 951.945 33.3579C955.312 27.4539 955.617 37.786 959.596 30.4059C964.798 36.0148 970.306 30.4059 975.814 30.4059C978.568 27.1587 981.628 31.5867 984.077 30.4059C988.361 29.8155 986.219 31.5867 989.585 33.3579C993.563 37.4908 997.235 41.3284 1002.44 35.4243C1006.11 38.9668 1010.09 36.9004 1013.76 35.4243C1016.82 34.5387 1019.88 35.7195 1022.63 35.1291C1025.39 37.1956 1027.84 33.0627 1030.9 31.5867C1033.65 27.4539 1037.02 32.4723 1039.77 29.8155C1044.97 31.5867 1048.64 24.5018 1053.85 22.4354C1059.05 14.7601 1064.56 22.1402 1069.76 21.845C1074.04 18.3026 1076.8 22.7306 1081.08 17.417C1083.53 25.6826 1086.28 15.6457 1088.73 16.2362C1090.26 16.5314 1092.1 9.44649 1093.93 13.5793C1095.46 11.2177 1097.3 18.3026 1098.83 13.8745C1104.03 14.4649 1105.56 13.8745 1109.23 8.85608C1117.5 4.13284 1126.68 -2.36163 1136.78 3.83763C1141.98 2.65682 1147.18 4.13284 1152.38 3.83763C1159.42 0.885605 1166.77 4.72324 1173.8 3.83763C1180.84 1.18081 1188.19 3.83763 1195.22 3.83763C1199.51 5.01845 1202.26 6.78966 1206.24 5.60885C1208.99 6.78966 1212.36 2.95203 1215.42 5.31364C1220.93 3.54243 1228.27 2.06641 1232.86 10.0369C1234.7 12.9889 1235.31 16.2362 1237.15 13.8745C1238.37 12.1033 1239.29 13.8745 1240.51 17.1218C1242.35 21.2546 1243.27 23.9114 1242.96 22.4354C1248.78 28.0443 1264.69 23.0258 1273.56 25.9779C1279.99 27.1587 1286.42 28.9299 1293.45 27.1587C1297.43 24.5018 1299.27 29.5203 1302.94 30.4059C1307.84 31.2915 1313.96 28.0443 1319.16 30.7011C1326.2 32.1771 1333.23 26.8635 1339.97 29.8155C1347.01 30.1107 1353.74 31.5867 1360.78 28.9299C1362 28.9299 1348.23 53.1365 1348.23 54.3173Z" fill="#FFFFFF"/>
</g>
<defs>
<clipPath id="clip0_0_19">
<rect width="1400" height="80" fill="white" transform="matrix(1 0 0 -1 -38 80)"/>
</clipPath>
</defs>
</svg>
