<svg width="84" height="62" viewBox="0 0 84 62" fill="none" xmlns="http://www.w3.org/2000/svg">
<path d="M20.46 61.38C16.94 61.38 13.86 60.72 11.22 59.4C8.58 57.9333 6.45333 56.0267 4.84 53.68C3.37333 51.3333 2.2 48.5467 1.32 45.32C0.44 42.0933 0 38.72 0 35.2C0 28.0133 1.83333 21.2667 5.5 14.96C9.31333 8.65334 15.18 3.66667 23.1 0L25.08 3.96C20.9733 5.86667 17.3067 8.65334 14.08 12.32C11 15.84 9.16667 19.58 8.58 23.54C7.7 26.62 7.62667 29.6267 8.36 32.56C11.5867 29.04 15.9133 27.28 21.34 27.28C26.3267 27.28 30.4333 28.82 33.66 31.9C36.8867 34.8333 38.5 38.94 38.5 44.22C38.5 49.3533 36.8133 53.5333 33.44 56.76C30.0667 59.84 25.74 61.38 20.46 61.38ZM65.78 61.38C62.26 61.38 59.18 60.72 56.54 59.4C53.9 57.9333 51.7733 56.0267 50.16 53.68C48.6933 51.3333 47.52 48.5467 46.64 45.32C45.76 42.0933 45.32 38.72 45.32 35.2C45.32 28.0133 47.1533 21.2667 50.82 14.96C54.6333 8.65334 60.5 3.66667 68.42 0L70.4 3.96C66.2933 5.86667 62.6267 8.65334 59.4 12.32C56.32 15.84 54.4867 19.58 53.9 23.54C53.02 26.62 52.9467 29.6267 53.68 32.56C56.9067 29.04 61.2333 27.28 66.66 27.28C71.6467 27.28 75.7533 28.82 78.98 31.9C82.2067 34.8333 83.82 38.94 83.82 44.22C83.82 49.3533 82.1333 53.5333 78.76 56.76C75.3867 59.84 71.06 61.38 65.78 61.38Z" fill="#FFB703"/>
</svg>
