<?xml version="1.0" encoding="UTF-8"?>
<svg id="Capa_1" data-name="Capa 1" xmlns="http://www.w3.org/2000/svg" viewBox="0 0 955.25 350.55">
  <defs>
    <style>
      .cls-1 {
        fill: #FCD34D;
      }
      .cls-2 {
        fill: #ffffff
      }
    </style>
  </defs>
  <g>
    <path class="cls-2" d="M285.43,132.81c1.79-.22,4.13-.54,7.03-.94,2.9-.4,5.75-.83,8.57-1.3,4.01-.66,7.85-1.32,11.52-1.99,3.67-.67,6.27-1.12,7.81-1.36,10.33-1.6,18.08-.17,23.23,4.34,5.15,4.51,7.74,11.01,7.77,19.3,.01,3.43-.49,7.08-1.5,10.93-1.02,3.85-2.78,7.46-5.3,10.8-2.52,3.35-5.96,6.14-10.32,8.38-4.36,2.24-9.89,3.54-16.57,3.97-4.93,.32-7.4,.48-12.33,.81,0-1.07,0-1.6,0-2.67,4.42-.32,6.63-.47,11.04-.78,6.08-.42,10.73-1.96,13.93-4.69,3.2-2.73,5.38-6.2,6.52-10.41,1.14-4.21,1.71-8.71,1.69-13.49-.03-8.89-1.65-15.36-4.87-19.31-3.22-3.94-8.72-5.3-16.49-4.12-3.93,.6-6.49,1.76-7.68,3.47-1.19,1.71-1.79,4.87-1.78,9.51,.03,22.14,.07,44.28,.1,66.43,0,3.21,.33,5.62,.98,7.22,.64,1.6,1.91,2.66,3.8,3.18,1.89,.52,4.64,.86,8.24,1.02,0,1.09,0,1.64,0,2.74-2.23-.18-5.07-.28-8.5-.31-3.43-.03-6.91-.04-10.43-.03-3.35,.01-6.48,.05-9.4,.1-2.92,.06-5.28,.17-7.08,.35v-2.58c2.92-.19,5.13-.56,6.63-1.1,1.5-.54,2.51-1.6,3.02-3.17,.51-1.58,.77-3.95,.77-7.1-.02-21.69-.03-43.39-.05-65.08,0-3.24-.26-5.58-.77-7.03-.51-1.45-1.52-2.34-3.01-2.66-1.49-.32-3.69-.28-6.58,.12v-2.58Z"/>
    <path class="cls-2" d="M424.53,113.81c-.33,3.65-.55,7.19-.66,10.61-.12,3.42-.17,6.01-.16,7.77,0,1.86,.06,3.64,.15,5.34,.09,1.7,.18,3.11,.28,4.24-1.18,.09-1.78,.13-2.96,.23-.54-6.04-1.29-10.79-2.25-14.26-.96-3.46-2.58-5.83-4.86-7.08-2.28-1.26-5.69-1.64-10.24-1.15-4.27,.46-6.41,.69-10.67,1.18-2.92,.33-5.12,.86-6.62,1.58-1.5,.72-2.5,1.98-3.01,3.77-.51,1.79-.75,4.52-.74,8.19,.1,24.58,.2,49.15,.3,73.73,.01,3.57,.28,6.24,.81,8.02,.52,1.78,1.54,2.94,3.04,3.47,1.5,.54,3.72,.8,6.64,.78,3.76-.02,5.64-.03,9.4-.05,5.41-.03,9.5-.92,12.28-2.68,2.78-1.76,4.79-4.64,6.01-8.63,1.23-3.99,2.13-9.4,2.7-16.24,1.18-.04,1.78-.05,2.96-.09-.25,2.8-.36,6.53-.34,11.19,0,1.97,.08,4.79,.23,8.46,.14,3.68,.4,7.48,.76,11.42-4.38-.2-9.32-.31-14.81-.35-5.49-.04-10.39-.05-14.68-.04-1.89,0-4.31,.01-7.27,.02-2.96,0-6.16,.04-9.59,.1-3.43,.06-6.91,.12-10.43,.18-3.52,.06-6.87,.14-10.04,.24,0-1.16,0-1.74-.01-2.89,2.92-.21,5.12-.61,6.63-1.21,1.5-.6,2.5-1.77,3.01-3.54,.51-1.76,.75-4.41,.74-7.92-.1-24.23-.19-48.47-.28-72.7-.01-3.61-.28-6.25-.8-7.9-.52-1.65-1.53-2.69-3.03-3.14-1.5-.44-3.71-.53-6.62-.25,0-1.16,0-1.74-.01-2.89,3.17-.33,6.51-.69,10.02-1.09,3.51-.4,6.98-.79,10.41-1.16,3.42-.37,6.62-.73,9.58-1.08s5.38-.63,7.27-.84c3.94-.45,8.43-.97,13.44-1.56,5.02-.59,9.5-1.17,13.45-1.78Zm-21.92,54.28c0,1.21,0,1.82,.01,3.04-9.42,.52-14.13,.8-23.54,1.38,0-1.18,0-1.78-.01-2.96,9.41-.61,14.12-.91,23.54-1.46Zm3.65-20.34c-.32,5.82-.45,10.25-.39,13.29,.06,3.04,.09,5.84,.1,8.38,.01,2.54,.07,5.33,.16,8.37,.1,3.04,.33,7.45,.7,13.23-1.18,.04-1.78,.06-2.96,.1-.36-3.23-.78-6.38-1.26-9.45-.48-3.07-1.53-5.55-3.12-7.43-1.6-1.88-4.28-2.71-8.05-2.49,0-1.2,0-1.8-.01-3,2.83-.18,4.99-.98,6.49-2.44,1.49-1.45,2.58-3.27,3.26-5.43,.68-2.17,1.14-4.4,1.39-6.7,.25-2.3,.5-4.37,.75-6.21,1.18-.09,1.78-.14,2.96-.23Z"/>
    <path class="cls-2" d="M471.56,109.66c0,1.29,0,1.93,.01,3.22-2.92,.32-5.14,.89-6.64,1.7-1.5,.81-2.51,2.17-3.01,4.07-.51,1.9-.75,4.82-.74,8.76,.1,26.4,.21,52.81,.31,79.21,.02,3.83,.28,6.7,.81,8.62,.52,1.91,1.54,3.16,3.04,3.74,1.5,.58,3.72,.87,6.64,.85,3.76-.01,5.64-.02,9.4-.04,4.03-.01,7.32-.57,9.85-1.66,2.53-1.09,4.54-2.82,6.03-5.17,1.49-2.35,2.62-5.49,3.38-9.43,.76-3.93,1.34-8.74,1.76-14.43,1.19-.02,1.78-.03,2.96-.05-.25,3.39-.36,7.88-.34,13.45,0,2.08,.08,5.06,.22,8.93,.14,3.88,.39,7.9,.75,12.05-4.38-.21-9.32-.34-14.81-.39-5.49-.05-10.39-.07-14.68-.06-1.89,0-4.31,0-7.28,.01-2.96,0-6.16,.04-9.59,.1-3.43,.06-6.91,.12-10.43,.18-3.52,.06-6.87,.15-10.04,.25,0-1.26,0-1.88-.01-3.14,2.92-.22,5.13-.65,6.63-1.29,1.5-.64,2.5-1.91,3.01-3.81,.51-1.9,.75-4.76,.74-8.55-.11-26.17-.21-52.34-.32-78.51-.02-3.9-.29-6.76-.81-8.56-.52-1.8-1.54-2.98-3.04-3.54-1.5-.55-3.72-.75-6.64-.59,0-1.26,0-1.88-.01-3.14,1.8-.06,4.17-.18,7.09-.33,2.92-.16,6.06-.37,9.41-.66,3.01-.25,5.99-.55,8.96-.89,2.96-.34,5.44-.64,7.41-.9Z"/>
    <path class="cls-2" d="M578.99,104.44c-.34,3.93-.57,7.74-.7,11.44-.13,3.7-.19,6.5-.18,8.41,0,2.02,.05,3.95,.14,5.8,.09,1.85,.18,3.39,.26,4.62-1.19,.02-1.78,.03-2.97,.05-.53-6.6-1.26-11.82-2.22-15.66-.95-3.84-2.57-6.55-4.86-8.11-2.28-1.56-5.71-2.28-10.27-2.14-4.29,.13-6.43,.2-10.72,.36-2.93,.11-5.15,.5-6.65,1.17-1.5,.67-2.51,1.99-3.03,3.94-.51,1.96-.76,4.99-.75,9.09,.07,27.48,.13,54.96,.2,82.44,0,3.99,.27,6.98,.79,8.97,.52,1.99,1.53,3.29,3.04,3.9,1.5,.61,3.72,.91,6.64,.9,3.76,0,5.64-.01,9.4-.02,5.41,0,9.51-.96,12.29-2.87,2.79-1.91,4.8-5.02,6.04-9.33,1.24-4.31,2.16-10.17,2.75-17.57,1.19,0,1.78-.01,2.96-.02-.25,3.03-.38,7.06-.37,12.11,0,2.13,.07,5.19,.2,9.16,.13,3.98,.37,8.1,.72,12.36-4.38-.22-9.32-.36-14.81-.41-5.49-.05-10.39-.08-14.68-.07-1.89,0-4.31,0-7.28,0-2.96,0-6.16,.03-9.59,.09-3.43,.06-6.91,.12-10.43,.18-3.52,.06-6.87,.15-10.04,.26,0-1.32,0-1.98,0-3.29,2.92-.23,5.13-.67,6.63-1.34,1.5-.67,2.51-1.99,3.02-3.98,.51-1.99,.76-4.97,.75-8.94-.07-27.35-.15-54.71-.22-82.06-.01-4.08-.28-7.08-.8-8.98-.52-1.9-1.54-3.18-3.04-3.82-1.51-.64-3.73-.94-6.65-.9,0-1.32,0-1.98,0-3.29,3.18-.06,6.54-.15,10.07-.27,3.53-.12,7.02-.22,10.46-.32,3.44-.09,6.65-.2,9.62-.31s5.4-.2,7.3-.27c3.96-.14,8.46-.31,13.5-.51,5.04-.2,9.54-.44,13.5-.75Zm-22.12,57.79c0,1.34,0,2.01,0,3.35-9.44,.15-14.16,.24-23.6,.45,0-1.33,0-1.99,0-3.32,9.44-.22,14.16-.32,23.6-.48Zm3.7-22.16c-.33,6.37-.48,11.23-.43,14.57,.05,3.35,.08,6.42,.08,9.2,0,2.79,.05,5.86,.15,9.2,.09,3.35,.31,8.2,.67,14.56-1.19,.01-1.78,.02-2.96,.03-.35-3.56-.77-7.04-1.24-10.44-.48-3.39-1.52-6.17-3.11-8.31-1.6-2.15-4.28-3.18-8.07-3.11,0-1.33,0-2,0-3.33,2.84-.06,5.01-.85,6.51-2.38,1.5-1.53,2.59-3.48,3.28-5.83,.68-2.35,1.15-4.79,1.41-7.3,.25-2.51,.51-4.78,.76-6.79,1.19-.03,1.78-.04,2.97-.07Z"/>
    <path class="cls-2" d="M664.28,104.5c-.35,4.25-.59,8.36-.73,12.33-.13,3.97-.2,7.03-.21,9.15,0,2.69,.04,5.21,.12,7.56,.08,2.35,.17,4.43,.25,6.22-1.19-.02-1.78-.03-2.97-.05-.59-7.85-1.4-14.06-2.43-18.62-1.03-4.56-2.83-7.87-5.41-9.93-2.58-2.06-6.59-3.13-12.01-3.19-2.79-.03-4.19-.04-6.98-.06-.01,31.98-.03,63.95-.04,95.93,0,4.5,.32,7.87,.96,10.12,.64,2.25,1.91,3.77,3.8,4.55,1.89,.79,4.64,1.3,8.24,1.52,0,1.35,0,2.02,0,3.37-2.23-.22-5.07-.36-8.5-.42-3.43-.06-6.91-.09-10.43-.09-3.86,0-7.49,.03-10.88,.09-3.39,.06-6.12,.2-8.18,.42,0-1.35,0-2.02,0-3.37,3.61-.22,6.35-.73,8.24-1.52,1.89-.79,3.15-2.3,3.8-4.55,.64-2.25,.97-5.62,.97-10.12,0-31.99,0-63.98,0-95.97-2.79,0-4.19,0-6.98,0-5.34,.01-9.33,1.06-11.95,3.1-2.63,2.05-4.45,5.35-5.48,9.91-1.03,4.56-1.85,10.77-2.44,18.64-1.19,.01-1.78,.02-2.97,.03,.17-1.8,.27-3.88,.32-6.23,.04-2.36,.06-4.88,.06-7.58,0-2.13-.07-5.19-.2-9.17-.13-3.98-.37-8.1-.72-12.37,3.62,.06,7.56,.12,11.83,.2s8.55,.11,12.86,.1c4.31,0,8.23,0,11.76,.01,3.53,.01,7.43,.04,11.7,.08s8.55,.04,12.86,0c4.31-.04,8.23-.07,11.76-.11Z"/>
    <path class="cls-2" d="M737.9,107.53c-.36,3.8-.61,7.5-.75,11.1-.14,3.6-.21,6.33-.22,8.18,0,1.97,.03,3.85,.11,5.66,.08,1.81,.16,3.31,.24,4.52-1.19-.05-1.78-.08-2.97-.13-.5-6.47-1.21-11.63-2.15-15.45-.93-3.82-2.54-6.6-4.82-8.3-2.27-1.71-5.7-2.69-10.26-2.9-4.29-.21-6.43-.3-10.72-.48-2.93-.12-5.15,.09-6.65,.64-1.51,.55-2.52,1.79-3.04,3.72-.52,1.93-.79,4.95-.79,9.05-.06,27.55-.12,55.1-.18,82.65,0,4,.24,7,.75,9,.51,2,1.52,3.31,3.02,3.92,1.5,.61,3.71,.92,6.63,.93,3.76,0,5.64,.01,9.4,.02,5.41,.01,9.51-.91,12.31-2.76,2.8-1.85,4.82-4.88,6.08-9.08,1.26-4.2,2.2-9.9,2.83-17.1,1.19,.02,1.78,.03,2.96,.05-.27,2.94-.41,6.86-.42,11.77,0,2.07,.05,5.05,.16,8.92,.12,3.87,.34,7.88,.67,12.03-4.38-.22-9.32-.37-14.81-.43-5.49-.06-10.39-.1-14.68-.1-1.89,0-4.31,0-7.28,0-2.96,0-6.16,.02-9.59,.08-3.43,.05-6.91,.1-10.43,.16-3.52,.05-6.87,.14-10.04,.24,0-1.34,0-2.01,0-3.35,2.92-.22,5.13-.66,6.63-1.33,1.5-.67,2.51-2,3.03-4.01,.52-2.01,.78-5.02,.79-9.03,.05-27.65,.1-55.3,.16-82.95,0-4.12-.24-7.17-.76-9.14-.51-1.97-1.52-3.34-3.03-4.11-1.5-.77-3.72-1.25-6.65-1.44,0-1.34,0-2.01,0-3.35,3.19,.2,6.55,.38,10.08,.55,3.53,.17,7.02,.35,10.46,.53,3.44,.19,6.65,.34,9.62,.47,2.97,.13,5.4,.24,7.3,.32,3.96,.18,8.46,.37,13.49,.58,5.03,.21,9.53,.33,13.49,.35Zm-22.36,55.38c0,1.32,0,1.99,0,3.31-9.44-.23-14.16-.33-23.6-.5,0-1.33,0-2,0-3.34,9.44,.18,14.16,.29,23.6,.53Zm3.8-21.71c-.36,6.27-.53,11.05-.49,14.36,.03,3.3,.05,6.34,.04,9.09,0,2.75,.03,5.78,.1,9.09,.08,3.31,.28,8.1,.6,14.38-1.19-.02-1.78-.03-2.96-.05-.33-3.53-.73-6.98-1.2-10.36-.46-3.37-1.49-6.15-3.07-8.34-1.59-2.19-4.27-3.33-8.05-3.41,0-1.33,0-1.99,0-3.32,2.84,.06,5.01-.63,6.52-2.08,1.51-1.45,2.61-3.33,3.3-5.63,.69-2.3,1.17-4.68,1.44-7.16,.26-2.47,.53-4.7,.79-6.67,1.19,.04,1.78,.06,2.97,.1Z"/>
    <path class="cls-2" d="M752.09,108.44c1.81,.23,4.17,.5,7.09,.81,2.92,.31,5.8,.58,8.64,.79,4.04,.3,7.91,.55,11.61,.75,3.69,.19,6.32,.36,7.86,.5,6.96,.59,12.73,2.34,17.31,5.16,4.58,2.82,8.01,6.38,10.26,10.67,2.26,4.29,3.37,8.95,3.35,14-.01,3.1-.54,6.36-1.59,9.8-1.05,3.44-2.84,6.64-5.39,9.61-2.54,2.97-6.01,5.37-10.4,7.2-4.39,1.83-9.93,2.62-16.63,2.35-4.95-.2-7.42-.3-12.37-.48,0-1.28,0-1.93,.01-3.21,4.43,.18,6.65,.27,11.08,.46,6.1,.26,10.76-.72,13.99-2.92,3.23-2.2,5.43-5.23,6.61-9.08,1.18-3.85,1.77-8.17,1.79-12.97,.03-8.24-1.55-14.76-4.75-19.59-3.2-4.83-8.71-7.62-16.53-8.25-3.95-.32-6.53,.38-7.75,2.11-1.21,1.72-1.83,5.37-1.85,10.92-.1,26.5-.21,52.99-.31,79.49-.02,3.85,.23,6.73,.74,8.66,.51,1.93,1.51,3.21,3.01,3.86,1.5,.65,3.71,1.08,6.63,1.3,0,1.27,0,1.91-.01,3.18-1.98-.21-4.44-.35-7.4-.41s-5.95-.09-8.95-.1c-3.35,0-6.48,.02-9.4,.07-2.92,.05-5.28,.18-7.08,.39,0-1.3,0-1.95,.01-3.25,2.92-.21,5.13-.63,6.64-1.27,1.5-.64,2.52-1.93,3.04-3.87,.52-1.94,.79-4.84,.81-8.72,.1-26.7,.2-53.41,.3-80.11,.01-3.98-.23-6.93-.74-8.85-.51-1.92-1.52-3.28-3.02-4.09-1.5-.8-3.72-1.36-6.64-1.66,0-1.3,0-1.95,.01-3.25Zm20.29,58.45c4.64,.4,8.29,.79,10.95,1.17,2.66,.38,4.83,.71,6.5,.99,1.67,.28,3.28,.62,4.83,1,5.75,1.41,9.88,3.72,12.4,6.89,2.52,3.18,4.36,8,5.54,14.47,1.26,6.38,1.89,9.57,3.15,15.92,.84,4.56,1.71,7.85,2.6,9.87,.89,2.02,2.3,2.99,4.17,2.88,1.45-.08,2.68-.65,3.68-1.67,.99-1.02,2.05-2.39,3.17-4.11,.77,.68,1.15,1.02,1.92,1.7-1.82,3.14-3.69,5.56-5.63,7.25-1.94,1.69-4.67,2.54-8.19,2.54-3.18,0-5.96-1.14-8.36-3.43-2.39-2.29-4.18-6.79-5.35-13.49-1.11-6.28-1.66-9.43-2.77-15.75-.75-4.52-1.62-8.46-2.59-11.8-.97-3.34-2.34-6-4.09-7.96-1.75-1.97-4.35-3.03-7.78-3.17-5.56-.23-8.35-.34-13.91-.55-.1-1.09-.15-1.64-.25-2.74Z"/>
    <path class="cls-2" d="M868.37,119.75c0,1.17,0,1.76-.01,2.94-2.91-.26-5.12-.16-6.62,.3-1.5,.46-2.51,1.53-3.03,3.21-.52,1.67-.79,4.35-.8,8.01-.1,24.58-.2,49.15-.3,73.73-.01,3.57,.23,6.25,.74,8.04,.51,1.79,1.51,2.98,3.01,3.59,1.5,.6,3.71,1.01,6.63,1.22,0,1.18,0,1.76-.01,2.94-1.97-.2-4.44-.33-7.4-.39s-5.94-.09-8.95-.1c-3.35,0-6.48,0-9.4,.05-2.92,.04-5.28,.16-7.08,.36,0-1.22,0-1.83,.01-3.05,2.92-.19,5.13-.58,6.64-1.17,1.5-.6,2.52-1.79,3.04-3.6,.52-1.8,.79-4.51,.81-8.13,.11-24.9,.21-49.81,.32-74.71,.02-3.71-.23-6.48-.74-8.29-.51-1.81-1.51-3.13-3.01-3.95-1.5-.82-3.71-1.44-6.62-1.86,0-1.22,0-1.83,.01-3.04,1.8,.3,4.16,.66,7.07,1.1,2.91,.43,6.04,.84,9.39,1.24,3,.36,5.98,.66,8.93,.93,2.95,.27,5.42,.48,7.39,.63Z"/>
    <path class="cls-2" d="M915.2,125.61c10.01,29.26,20.35,58.38,31.18,87.35,1.28,3.35,2.74,5.56,4.37,6.66,1.63,1.1,3.13,1.69,4.51,1.79,0,1.03,0,1.55,0,2.58-1.72-.18-3.82-.29-6.31-.35-2.49-.05-4.98-.09-7.47-.1-3.35-.01-6.48,0-9.4,.03-2.92,.03-5.28,.14-7.08,.31,0-1.09,0-1.63,0-2.71,4.38-.15,7.17-.91,8.37-2.28,1.2-1.37,.95-4.32-.76-8.92-8.2-23.15-16.04-46.42-23.74-69.73,.82-.62,1.23-.93,2.06-1.54-7.68,20.57-15.19,41.21-22.55,61.9-1.39,3.77-2.21,6.98-2.48,9.61-.27,2.63-.04,4.72,.69,6.25,.72,1.54,1.97,2.65,3.72,3.33,1.75,.68,3.97,1.07,6.63,1.19,0,1.13,0,1.7,0,2.83-2.4-.19-4.91-.32-7.53-.38-2.62-.06-5.04-.09-7.27-.1-2.15,0-3.97,.01-5.47,.06-1.5,.04-2.9,.16-4.19,.35,0-1.17,0-1.75,.01-2.92,1.72-.48,3.48-1.61,5.29-3.38,1.81-1.77,3.45-4.81,4.93-9.1,9.86-27.79,19.97-55.47,30.45-83.04,.34,.05,.68,.1,1.03,.16,.34,.05,.68,.1,1.02,.16Zm15.53,59.58c0,1.08,0,1.61,0,2.69-12.76-.8-25.53-1.55-38.3-2.24,.52-1.11,.78-1.67,1.29-2.77,12.34,.72,24.68,1.5,37.01,2.32Z"/>
  </g>
  <g>
    <path class="cls-1" d="M377.37,252.61c5.67,0,10.32,.84,13.97,2.51,3.65,1.67,6.89,3.63,9.72,5.86,1.72,1.29,3.03,1.44,3.93,.45,.9-.99,1.52-3.33,1.87-7.02h2.96c-.17,3.18-.3,7.04-.39,11.59-.09,4.55-.13,10.56-.13,18.03h-2.96c-.6-3.69-1.16-6.63-1.67-8.82-.51-2.19-1.14-4.06-1.87-5.6-.73-1.54-1.7-3.09-2.9-4.63-2.66-3.52-6.01-6.07-10.04-7.66-4.04-1.59-8.29-2.38-12.75-2.38-4.21,0-8.01,1.05-11.4,3.15-3.39,2.1-6.31,5.13-8.76,9.08-2.45,3.95-4.34,8.71-5.67,14.29-1.33,5.58-2,11.85-2,18.8s.73,13.59,2.19,19.12c1.46,5.54,3.5,10.19,6.12,13.97,2.62,3.78,5.71,6.63,9.27,8.56,3.56,1.93,7.4,2.9,11.52,2.9,3.86,0,7.9-.77,12.1-2.32,4.2-1.54,7.51-4.03,9.91-7.47,1.89-2.49,3.2-5.19,3.93-8.11,.73-2.92,1.39-7,2-12.23h2.96c0,7.81,.04,14.1,.13,18.86,.08,4.76,.21,8.78,.39,12.04h-2.96c-.34-3.69-.92-6.01-1.74-6.95-.82-.94-2.17-.81-4.06,.39-3.18,2.23-6.55,4.18-10.11,5.86-3.56,1.67-8.13,2.51-13.71,2.51-8.16,0-15.3-1.84-21.44-5.54-6.14-3.69-10.9-9.01-14.29-15.97-3.39-6.95-5.09-15.32-5.09-25.11s1.76-18.03,5.28-25.24c3.52-7.21,8.35-12.83,14.49-16.87,6.14-4.03,13.2-6.05,21.18-6.05Z"/>
    <path class="cls-1" d="M487.85,254.42c-.35,3.01-.58,5.92-.71,8.76s-.19,4.98-.19,6.44c0,1.54,.04,3.03,.13,4.44s.17,2.6,.26,3.54h-2.96c-.51-5.06-1.25-9.08-2.19-12.04-.95-2.96-2.56-5.06-4.83-6.31-2.28-1.24-5.69-1.87-10.24-1.87h-10.69c-2.92,0-5.13,.24-6.63,.71-1.5,.47-2.51,1.46-3.03,2.96-.51,1.5-.77,3.84-.77,7.02v63.87c0,3.09,.26,5.41,.77,6.95,.52,1.54,1.52,2.55,3.03,3.03,1.5,.47,3.71,.71,6.63,.71h9.4c5.41,0,9.51-.73,12.3-2.19,2.79-1.46,4.81-3.84,6.05-7.15,1.24-3.3,2.17-7.79,2.77-13.46h2.96c-.26,2.32-.39,5.41-.39,9.27,0,1.63,.06,3.97,.19,7.02,.13,3.05,.36,6.2,.71,9.46-4.38-.17-9.32-.28-14.81-.32-5.49-.04-10.39-.07-14.68-.07h-7.28c-2.96,0-6.16,.02-9.59,.07-3.43,.04-6.91,.09-10.43,.13-3.52,.04-6.87,.11-10.04,.19v-2.58c2.92-.17,5.13-.51,6.63-1.03,1.5-.52,2.51-1.54,3.03-3.09,.52-1.55,.77-3.86,.77-6.95v-63.87c0-3.17-.26-5.51-.77-7.02-.51-1.5-1.52-2.53-3.03-3.09-1.5-.56-3.71-.88-6.63-.97v-2.58c3.18,.09,6.52,.15,10.04,.19,3.52,.04,7,.09,10.43,.13,3.43,.05,6.63,.07,9.59,.07h7.28c3.95,0,8.43-.02,13.46-.07,5.02-.04,9.51-.15,13.46-.32Zm-22.15,44.04v2.58h-23.56v-2.58h23.56Zm3.74-17c-.35,4.89-.5,8.63-.45,11.2,.04,2.57,.07,4.94,.07,7.08s.04,4.51,.13,7.08c.08,2.57,.3,6.31,.64,11.2h-2.96c-.34-2.75-.75-5.43-1.22-8.05-.47-2.62-1.5-4.76-3.09-6.44-1.59-1.67-4.27-2.51-8.05-2.51v-2.58c2.83,0,5-.58,6.5-1.74,1.5-1.16,2.6-2.64,3.28-4.44,.69-1.8,1.16-3.67,1.42-5.6,.26-1.93,.52-3.67,.77-5.21h2.96Z"/>
    <path class="cls-1" d="M582.87,254.42v2.58c-2.92,.09-5.13,.51-6.63,1.29-1.5,.77-2.51,2.02-3.03,3.74-.51,1.72-.77,4.16-.77,7.34v76.87h-2.96l-54.08-83.57v67.99c0,3.09,.28,5.52,.84,7.27,.56,1.76,1.67,3.01,3.35,3.73,1.67,.73,4.18,1.18,7.53,1.35v2.58c-1.54-.17-3.56-.28-6.05-.32-2.49-.04-4.85-.07-7.08-.07s-4.31,.02-6.5,.07c-2.19,.04-4.01,.15-5.47,.32v-2.58c2.92-.17,5.13-.62,6.63-1.35,1.5-.73,2.51-1.97,3.03-3.73,.52-1.76,.77-4.18,.77-7.27v-62.58c0-3.17-.26-5.51-.77-7.02-.52-1.5-1.52-2.53-3.03-3.09-1.5-.56-3.71-.88-6.63-.97v-2.58c1.46,.09,3.28,.17,5.47,.26,2.19,.09,4.36,.13,6.5,.13,1.89,0,3.69-.04,5.41-.13,1.72-.08,3.26-.17,4.63-.26l45.45,70.05v-55.11c0-3.17-.28-5.62-.84-7.34-.56-1.72-1.67-2.96-3.35-3.74-1.67-.77-4.18-1.2-7.53-1.29v-2.58c1.54,.09,3.58,.17,6.12,.26,2.53,.09,4.87,.13,7.02,.13s4.44-.04,6.63-.13c2.19-.08,3.97-.17,5.34-.26Z"/>
    <path class="cls-1" d="M663.74,254.42c-.34,3.26-.58,6.42-.71,9.46-.13,3.05-.19,5.39-.19,7.02,0,2.06,.04,3.99,.13,5.79,.08,1.8,.17,3.39,.26,4.76h-2.96c-.6-6.01-1.42-10.75-2.45-14.23-1.03-3.48-2.83-5.99-5.41-7.53-2.58-1.54-6.57-2.32-11.98-2.32h-6.95v73.27c0,3.43,.32,6.01,.97,7.73,.64,1.72,1.91,2.88,3.8,3.48,1.89,.6,4.64,.99,8.24,1.16v2.58c-2.23-.17-5.07-.28-8.5-.32-3.44-.04-6.91-.07-10.43-.07-3.86,0-7.49,.02-10.88,.07-3.39,.04-6.12,.15-8.18,.32v-2.58c3.61-.17,6.35-.56,8.24-1.16,1.89-.6,3.15-1.76,3.8-3.48,.64-1.72,.97-4.29,.97-7.73v-73.27h-6.95c-5.32,0-9.29,.77-11.91,2.32-2.62,1.55-4.44,4.06-5.47,7.53-1.03,3.48-1.85,8.22-2.45,14.23h-2.96c.17-1.37,.28-2.96,.32-4.76,.04-1.8,.06-3.73,.06-5.79,0-1.63-.06-3.97-.19-7.02-.13-3.05-.37-6.2-.71-9.46,3.61,.09,7.53,.17,11.78,.26,4.25,.09,8.52,.13,12.81,.13h23.37c4.25,0,8.52-.04,12.81-.13,4.29-.08,8.2-.17,11.72-.26Z"/>
    <path class="cls-1" d="M672.88,254.42c1.8,.09,4.16,.17,7.08,.26,2.92,.09,5.8,.13,8.63,.13,4.03,0,7.9-.04,11.59-.13,3.69-.08,6.31-.13,7.85-.13,6.95,0,12.73,.99,17.32,2.96,4.59,1.98,8.03,4.66,10.3,8.05,2.27,3.39,3.41,7.19,3.41,11.4,0,2.57-.51,5.32-1.54,8.24-1.03,2.92-2.81,5.67-5.34,8.24-2.53,2.58-5.99,4.7-10.37,6.37s-9.91,2.51-16.61,2.51h-12.36v-2.57h11.07c6.09,0,10.75-.97,13.97-2.9,3.22-1.93,5.41-4.51,6.57-7.73,1.16-3.22,1.74-6.8,1.74-10.75,0-6.78-1.61-12.04-4.83-15.77-3.22-3.73-8.74-5.6-16.55-5.6-3.95,0-6.52,.73-7.73,2.19-1.2,1.46-1.8,4.42-1.8,8.88v63.87c0,3.09,.26,5.41,.77,6.95,.52,1.54,1.52,2.57,3.03,3.09,1.5,.52,3.71,.86,6.63,1.03v2.58c-1.98-.17-4.44-.28-7.4-.32-2.96-.04-5.95-.07-8.95-.07-3.35,0-6.48,.02-9.4,.07-2.92,.04-5.28,.15-7.08,.32v-2.58c2.92-.17,5.13-.51,6.63-1.03,1.5-.52,2.51-1.54,3.03-3.09,.52-1.55,.77-3.86,.77-6.95v-63.87c0-3.17-.26-5.51-.77-7.02-.52-1.5-1.52-2.53-3.03-3.09-1.5-.56-3.71-.88-6.63-.97v-2.58Zm20.47,45.71c4.64,.17,8.28,.37,10.95,.58,2.66,.22,4.83,.41,6.5,.58,1.67,.17,3.28,.39,4.83,.64,5.75,.95,9.89,2.68,12.43,5.21,2.53,2.53,4.4,6.46,5.6,11.78l3.22,13.13c.86,3.78,1.74,6.5,2.64,8.18,.9,1.67,2.3,2.47,4.18,2.38,1.46-.08,2.68-.56,3.67-1.42,.99-.86,2.04-2.02,3.15-3.48l1.93,1.42c-1.8,2.66-3.67,4.7-5.6,6.12-1.93,1.42-4.66,2.12-8.18,2.12-3.18,0-5.97-.95-8.37-2.83-2.4-1.89-4.21-5.58-5.41-11.07l-2.83-12.88c-.77-3.69-1.65-6.89-2.64-9.59-.99-2.7-2.36-4.83-4.12-6.37-1.76-1.55-4.36-2.32-7.79-2.32h-13.91l-.26-2.19Z"/>
    <path class="cls-1" d="M792.5,253.77l31.42,80.99c1.29,3.26,2.75,5.43,4.38,6.5,1.63,1.07,3.13,1.65,4.51,1.74v2.58c-1.72-.17-3.82-.28-6.31-.32-2.49-.04-4.98-.07-7.47-.07-3.35,0-6.48,.02-9.4,.07-2.92,.04-5.28,.15-7.08,.32v-2.58c4.38-.17,7.17-.92,8.37-2.25,1.2-1.33,.94-4.18-.77-8.56l-23.95-64,2.06-1.67-22.4,58.2c-1.37,3.43-2.19,6.33-2.45,8.69-.26,2.36-.02,4.23,.71,5.6,.73,1.37,1.97,2.36,3.74,2.96,1.76,.6,3.97,.95,6.63,1.03v2.58c-2.4-.17-4.91-.28-7.53-.32-2.62-.04-5.04-.07-7.27-.07s-3.97,.02-5.47,.07c-1.5,.04-2.9,.15-4.18,.32v-2.58c1.72-.43,3.48-1.44,5.28-3.03,1.8-1.59,3.43-4.31,4.89-8.18l30.26-78.03h2.06Zm15.71,54.72v2.58h-38.37l1.29-2.58h37.08Z"/>
    <path class="cls-1" d="M870.27,254.42v2.58c-2.92,.09-5.13,.41-6.63,.97-1.5,.56-2.51,1.59-3.03,3.09-.52,1.5-.77,3.84-.77,7.02v63.87c0,3.09,.26,5.41,.77,6.95,.52,1.54,1.52,2.55,3.03,3.03,1.5,.47,3.71,.71,6.63,.71h9.4c4.03,0,7.32-.43,9.85-1.29,2.53-.86,4.55-2.21,6.05-4.06,1.5-1.84,2.64-4.31,3.41-7.4s1.37-6.87,1.8-11.33h2.96c-.26,2.66-.39,6.18-.39,10.56,0,1.63,.06,3.97,.19,7.02,.13,3.05,.36,6.2,.71,9.46-4.38-.17-9.31-.28-14.81-.32-5.49-.04-10.39-.07-14.68-.07h-7.27c-2.96,0-6.16,.02-9.59,.07-3.43,.04-6.91,.09-10.43,.13-3.52,.04-6.87,.11-10.04,.19v-2.58c2.92-.17,5.13-.51,6.63-1.03,1.5-.52,2.51-1.54,3.03-3.09,.52-1.55,.77-3.86,.77-6.95v-63.87c0-3.17-.26-5.51-.77-7.02-.52-1.5-1.52-2.53-3.03-3.09-1.5-.56-3.71-.88-6.63-.97v-2.58c1.8,.09,4.16,.17,7.08,.26,2.92,.09,6.05,.13,9.4,.13,3,0,5.99-.04,8.95-.13,2.96-.08,5.43-.17,7.4-.26Z"/>
  </g>
  <path class="cls-1" d="M261.69,177.48c-15.79,0-28.64-12.85-28.64-28.64s12.85-28.64,28.64-28.64c4.22,0,8.28,.9,12.08,2.66l-3.6,7.73c-2.66-1.24-5.51-1.87-8.47-1.87-11.09,0-20.11,9.02-20.11,20.11s9.02,20.11,20.11,20.11c4.21,0,8.25-1.29,11.66-3.72l4.95,6.95c-4.87,3.47-10.62,5.31-16.62,5.31Z"/>
  <rect class="cls-1" x=".29" y="342.02" width="237.94" height="8.53"/>
  <path class="cls-1" d="M.58,320.49l-.58-8.51c43.42-2.96,74.39-17.66,92.06-43.71,13.16-19.41,13.66-38.3,13.67-38.49l8.53,.13c-.01,.86-.47,21.26-14.86,42.73-13.17,19.65-41.01,43.91-98.81,47.84Z"/>
  <path class="cls-1" d="M266.04,311.75c-85.95,0-155.87-69.93-155.87-155.87S180.09,0,266.04,0c57.21,0,109.73,31.26,137.06,81.57l-7.5,4.07c-25.84-47.57-75.48-77.11-129.56-77.11-81.24,0-147.34,66.1-147.34,147.34s66.1,147.34,147.34,147.34c9.42,0,18.85-.9,28.03-2.66l1.61,8.38c-9.7,1.87-19.68,2.81-29.64,2.81Z"/>
</svg>